<svg width="66" height="66" viewBox="0 0 66 66" fill="none" xmlns="http://www.w3.org/2000/svg">
<g clip-path="url(#clip0_612_1282)">
<path d="M24.0204 31.6671C23.1338 29.461 22.6812 27.1044 22.6875 24.7268C22.6875 14.7804 30.7003 6.51491 40.6416 6.1978C43.1811 6.11315 45.711 6.55079 48.0745 7.48361C50.4381 8.41642 52.5849 9.82456 54.3821 11.6208C56.1793 13.417 57.5886 15.5631 58.5227 17.9262C59.4568 20.2892 59.8958 22.8188 59.8125 25.3584C59.4851 35.2997 51.2196 43.3125 41.2732 43.3125C38.8956 43.3188 36.539 42.8662 34.3329 41.9796L30.9375 45.375H24.75V51.5625H18.5625V57.75H10.3125C9.76549 57.75 9.24089 57.5327 8.85409 57.1459C8.4673 56.7591 8.25 56.2345 8.25 55.6875V48.2909C8.25025 47.7446 8.46722 47.2207 8.85328 46.8342L24.0204 31.6671Z" stroke="white" stroke-width="5" stroke-linecap="round" stroke-linejoin="round"/>
<path d="M48.5 21.5C48.5 23.7091 46.7091 25.5 44.5 25.5C42.2909 25.5 40.5 23.7091 40.5 21.5C40.5 19.2909 42.2909 17.5 44.5 17.5C46.7091 17.5 48.5 19.2909 48.5 21.5Z" stroke="white" stroke-width="5"/>
</g>
<defs>
<clipPath id="clip0_612_1282">
<rect width="66" height="66" fill="white"/>
</clipPath>
</defs>
</svg>
