<svg width="1369" height="197" viewBox="0 0 1369 197" fill="none" xmlns="http://www.w3.org/2000/svg">
<g clip-path="url(#clip0_1539_7)">
<path d="M0.5 160.727C43 191.859 91.7513 189.864 152 191.859C152 191.859 254 104.327 299 53.4221C403.095 -64.3314 450.5 160.727 560 160.727C667 160.727 716.5 24.3929 785.5 77.8225C953.429 207.857 1015.5 191.859 1015.5 191.859C1215 213.314 1329.5 67.5 1369 106.618V276H0.5V160.727Z" fill="#FACC15"/>
<path d="M0 185C75 216 111.5 164.5 161.5 128.158C290.984 34.0448 319 192.063 601 192.063C778.5 192.063 984.793 -68.7362 1101 16.6584C1167 65.1584 1262 174.658 1294.5 185.5C1327 196.342 1375 198.5 1412 155V275.158H0V185Z" fill="#09090B"/>
<path d="M344.897 142.107C341.19 130.186 339.985 117.628 341.389 105.225C342.792 92.8222 346.759 80.844 353.037 70.0456C354.102 68.2072 355.633 66.6806 357.477 65.6194C359.321 64.5582 361.413 63.9997 363.542 64.0002C377.668 63.9707 391.605 67.2355 404.24 73.5336C416.875 79.8318 427.857 88.9887 436.309 100.273H472.692C481.143 88.9887 492.125 79.8318 504.76 73.5336C517.395 67.2355 531.332 63.9707 545.458 64.0002C547.587 63.9997 549.679 64.5582 551.523 65.6194C553.367 66.6806 554.898 68.2072 555.963 70.0456C562.242 80.8438 566.208 92.8227 567.609 105.226C569.01 117.629 567.817 130.187 564.104 142.107C573.561 157.233 579 176.514 579 197H330C330 176.514 335.44 157.233 344.897 142.107Z" fill="#09090B"/>
</g>
<defs>
<clipPath id="clip0_1539_7">
<rect width="1369" height="197" fill="white"/>
</clipPath>
</defs>
</svg>
