<svg width="293" height="588" viewBox="0 0 293 588" fill="none" xmlns="http://www.w3.org/2000/svg">
<path d="M293 520.443C293 557.446 227.41 587.443 146.5 587.443C65.5903 587.443 0 557.446 0 520.443C0 483.44 65.5903 453.443 146.5 453.443C227.41 453.443 293 483.44 293 520.443Z" fill="#BEBEBE"/>
<path d="M293 67C293 104.003 227.41 134 146.5 134C65.5903 134 0 104.003 0 67C0 29.9968 65.5903 0 146.5 0C227.41 0 293 29.9968 293 67Z" fill="#BEBEBE"/>
<path d="M293 520.443V67C293 104.003 227.41 134 146.5 134C65.5903 134 0 104.003 0 67V520.443C0 483.44 65.5903 453.443 146.5 453.443C227.41 453.443 293 483.44 293 520.443Z" fill="#BEBEBE"/>
<path d="M146.5 481.113C210.841 481.113 263 462.757 263 440.113C263 417.47 210.841 399.113 146.5 399.113C82.1588 399.113 30 417.47 30 440.113C30 462.757 82.1588 481.113 146.5 481.113Z" fill="#F34432"/>
<path d="M263 440.113C263 462.757 210.841 481.113 146.5 481.113C82.1588 481.113 30 462.757 30 440.113L30 518.113C30 540.757 82.1588 559.113 146.5 559.113C210.841 559.113 263 540.757 263 518.113V440.113Z" fill="#C42829"/>
<path d="M146.5 375.113C210.841 375.113 263 356.757 263 334.113C263 311.47 210.841 293.114 146.5 293.114C82.1588 293.114 30 311.47 30 334.113C30 356.757 82.1588 375.113 146.5 375.113Z" fill="#FE8D23"/>
<path d="M263 334.113C263 356.757 210.841 375.113 146.5 375.113C82.1588 375.113 30 356.757 30 334.113L30 412.113C30 434.757 82.1588 453.113 146.5 453.113C210.841 453.113 263 434.757 263 412.113V334.113Z" fill="#F37D0F"/>
<path d="M146.5 269.114C210.841 269.114 263 250.757 263 228.114C263 205.47 210.841 187.114 146.5 187.114C82.1588 187.114 30 205.47 30 228.114C30 250.757 82.1588 269.114 146.5 269.114Z" fill="#FFD943"/>
<path d="M263 228.114C263 250.757 210.841 269.114 146.5 269.114C82.1588 269.114 30 250.757 30 228.114L30 306.114C30 328.757 82.1588 347.114 146.5 347.114C210.841 347.114 263 328.757 263 306.114V228.114Z" fill="#FACC15"/>
<path d="M146.5 163.114C210.841 163.114 263 144.757 263 122.114C263 99.47 210.841 81.1138 146.5 81.1138C82.1588 81.1138 30 99.47 30 122.114C30 144.757 82.1588 163.114 146.5 163.114Z" fill="#54CE66"/>
<path d="M263 122.114C263 144.757 210.841 163.114 146.5 163.114C82.1588 163.114 30 144.757 30 122.114L30 200.114C30 222.757 82.1588 241.114 146.5 241.114C210.841 241.114 263 222.757 263 200.114V122.114Z" fill="#3BB24C"/>
<g opacity="0.21">
<path d="M293 520.443C293 557.446 227.41 587.443 146.5 587.443C65.5903 587.443 0 557.446 0 520.443C0 483.44 65.5903 453.443 146.5 453.443C227.41 453.443 293 483.44 293 520.443Z" fill="#BEBEBE"/>
<path d="M293 67C293 104.003 227.41 134 146.5 134C65.5903 134 0 104.003 0 67C0 29.9968 65.5903 0 146.5 0C227.41 0 293 29.9968 293 67Z" fill="#BEBEBE"/>
<path d="M293 520.443V67C293 104.003 227.41 134 146.5 134C65.5903 134 0 104.003 0 67V520.443C0 483.44 65.5903 453.443 146.5 453.443C227.41 453.443 293 483.44 293 520.443Z" fill="#BEBEBE"/>
</g>
<path d="M293 67C293 104.003 227.41 134 146.5 134C65.5903 134 0 104.003 0 67C0 29.9968 65.5903 0 146.5 0C227.41 0 293 29.9968 293 67Z" fill="#BEBEBE"/>
<path fill-rule="evenodd" clip-rule="evenodd" d="M146.5 120C212.498 120 266 95.5995 266 65.5C266 35.4004 212.498 11 146.5 11C80.502 11 27 35.4004 27 65.5C27 71.0678 28.8307 76.4406 32.2326 81.5C27.7159 71.5 36.7643 62 46.6584 72.5C58.9654 85.5607 79 97 111 101.41C123.096 103.077 118 118.44 107.5 117.032C119.723 118.955 132.844 120 146.5 120Z" fill="#D9D9D9"/>
<path d="M107.5 117.032C118 118.44 123.096 103.077 111 101.41C79 97 58.9654 85.5607 46.6584 72.5C36.7643 62 27.7159 71.5 32.2326 81.5C43.4159 98.1324 71.5787 111.378 107.5 117.032Z" fill="#F1F5F6"/>
<path d="M191.382 58.2355C191.791 59.4035 192.037 60.6377 191.885 61.8656C190.211 75.3543 170.531 86 146.5 86C122.469 86 102.789 75.3543 101.115 61.8656C100.963 60.6377 101.209 59.4035 101.618 58.2355L108 40H185L191.382 58.2355Z" fill="#9E9E9E"/>
<path fill-rule="evenodd" clip-rule="evenodd" d="M146.5 62C168.315 62 186 53.9869 186 44.1023C186 34.2176 168.315 27 146.5 27C124.685 27 107 34.2176 107 44.1023C107 47.7371 109.391 51.1188 113.5 53.9421C107.939 48 111.406 36.5883 129.5 36.5C153.17 36.3844 162 59.5 143.5 61.9492C144.49 61.9828 145.491 62 146.5 62Z" fill="#D9D9D9"/>
<path d="M129.5 36.5C111.406 36.5883 107.939 48 113.5 53.9421C120.048 58.4413 130.957 61.5224 143.5 61.9492C162 59.5 153.17 36.3844 129.5 36.5Z" fill="#D9D9D9"/>
</svg>
