<svg width="387" height="208" viewBox="0 0 387 208" fill="none" xmlns="http://www.w3.org/2000/svg">
<path d="M23.7946 121.966C18.0444 103.417 16.1758 83.8774 18.3532 64.5798C20.5307 45.2822 26.6829 26.6451 36.4219 9.84357C38.0734 6.98309 40.4489 4.60784 43.3096 2.95666C46.1703 1.30548 49.4153 0.436578 52.7183 0.43732C74.6304 0.391454 96.2496 5.47117 115.849 15.2706C135.447 25.0701 152.483 39.3176 165.593 56.8748H222.031C235.141 39.3176 252.177 25.0701 271.775 15.2706C291.374 5.47117 312.994 0.391454 334.906 0.43732C338.209 0.436578 341.454 1.30548 344.314 2.95666C347.175 4.60784 349.551 6.98309 351.202 9.84357C360.943 26.6447 367.094 45.2829 369.267 64.5813C371.441 83.8798 369.589 103.419 363.83 121.966C378.499 145.5 386.937 175.5 386.937 207.375H0.687012C0.687012 175.5 9.12505 145.5 23.7946 121.966Z" fill="#09090B"/>
</svg>
