<svg width="270" height="270" viewBox="0 0 270 270" fill="none" xmlns="http://www.w3.org/2000/svg">
<path d="M208.042 138.107C216.301 141.051 223.331 146.117 229.134 153.305C236.711 162.69 240.5 172.444 240.5 184.567C240.5 195.517 237.708 205.196 232.125 213.603C226.741 221.816 218.865 228.268 208.496 232.961C198.127 237.654 185.864 240 171.706 240H148.5C146.843 240 145.5 238.657 145.5 237V208.801C145.5 207.144 146.843 205.801 148.5 205.801H165.724C175.894 205.801 183.77 203.454 189.353 198.762C195.136 194.069 198.027 188.185 198.027 179.581C198.027 170.782 195.036 163.815 189.054 158.926C184.475 155.035 180.864 152.633 174.467 151.72C172.93 151.501 172.06 149.751 172.926 148.464L174.729 145.786C179.729 138.358 179.729 128.642 174.729 121.214L174.343 120.641C173.491 119.375 174.317 117.652 175.82 117.382C181.583 116.346 184.776 114.011 189.054 110.375C195.036 105.487 198.027 99.2176 198.027 90.4187C198.027 81.8154 195.136 76.2326 189.353 71.5399C183.77 66.8472 175.894 64.5008 165.724 64.5008H148.5C146.843 64.5008 145.5 63.1577 145.5 61.5008V33C145.5 31.3431 146.843 30 148.5 30H171.706C185.864 30 198.127 32.3464 208.496 37.0391C218.865 41.7318 226.741 48.1843 232.125 56.3965C237.708 64.8043 240.5 74.483 240.5 85.4327C240.5 97.5555 236.711 109.31 229.134 118.695C223.331 125.883 216.301 130.949 208.042 133.894C206.472 134.454 206.472 137.547 208.042 138.107Z" fill="#4C1D95"/>
<path d="M88.3358 121.118C89.2301 119.789 88.2782 118.001 86.6767 118.001H75C73.3431 118.001 72 116.658 72 115.001V67.5008C72 65.8439 73.3431 64.5008 75 64.5008H112.5C114.157 64.5008 115.5 63.1577 115.5 61.5008V33.3008C115.5 31.6439 114.157 30.3008 112.5 30.3008H33C31.3431 30.3008 30 31.6439 30 33.3008V237.001C30 238.658 31.3431 240.001 33 240.001H112.5C114.157 240.001 115.5 238.658 115.5 237.001V208.801C115.5 207.144 114.157 205.801 112.5 205.801H75C73.3431 205.801 72 204.458 72 202.801V154.301C72 152.644 73.3431 151.301 75 151.301H88.2262C89.8276 151.301 90.7796 149.512 89.8852 148.184L88.2709 145.786C83.2707 138.358 83.2707 128.642 88.2709 121.214L88.3358 121.118Z" fill="#4C1D95"/>
<path d="M105.121 135.671C104.443 134.66 104.443 133.34 105.121 132.329L129.009 96.7145C130.197 94.9427 132.803 94.9427 133.991 96.7145L157.879 132.329C158.557 133.34 158.557 134.66 157.879 135.671L133.991 171.285C132.803 173.057 130.197 173.057 129.009 171.285L105.121 135.671Z" fill="#4C1D95"/>
</svg>
